<svg width="495" height="168" viewBox="0 0 495 168" fill="none" xmlns="http://www.w3.org/2000/svg">
<g clip-path="url(#clip0_158_28)">
<g opacity="0.05">
<mask id="path-1-inside-1_158_28" fill="white">
<path d="M311.65 9.94907C311.936 8.86036 311.285 7.74434 310.194 7.467C252.251 -7.26079 190.889 -0.204151 137.775 27.3414C84.0564 55.2002 42.6082 102.028 21.4789 158.732C0.349602 215.436 1.04715 277.968 23.4361 334.187C45.825 390.405 88.3075 436.297 142.634 462.95C196.96 489.604 259.253 495.117 317.416 478.419C375.579 461.721 425.461 424.004 457.376 372.591C489.29 321.179 500.96 259.741 490.118 200.208C479.397 141.344 447.426 88.4955 400.318 51.6837C399.431 50.9906 398.15 51.1582 397.464 52.051C396.778 52.9439 396.948 54.2237 397.835 54.917C444.14 91.1128 475.568 143.069 486.107 200.938C496.768 259.477 485.293 319.888 453.912 370.441C422.531 420.994 373.482 458.081 316.291 474.5C259.1 490.919 197.848 485.498 144.43 459.29C91.011 433.082 49.2384 387.957 27.2236 332.678C5.20878 277.399 4.52289 215.912 25.2991 160.155C46.0753 104.399 86.8309 58.3538 139.652 30.9605C191.868 3.88043 252.192 -3.06084 309.156 11.4098C310.247 11.687 311.363 11.0378 311.65 9.94907Z"/>
</mask>
<path d="M311.65 9.94907C311.936 8.86036 311.285 7.74434 310.194 7.467C252.251 -7.26079 190.889 -0.204151 137.775 27.3414C84.0564 55.2002 42.6082 102.028 21.4789 158.732C0.349602 215.436 1.04715 277.968 23.4361 334.187C45.825 390.405 88.3075 436.297 142.634 462.95C196.96 489.604 259.253 495.117 317.416 478.419C375.579 461.721 425.461 424.004 457.376 372.591C489.29 321.179 500.96 259.741 490.118 200.208C479.397 141.344 447.426 88.4955 400.318 51.6837C399.431 50.9906 398.15 51.1582 397.464 52.051C396.778 52.9439 396.948 54.2237 397.835 54.917C444.14 91.1128 475.568 143.069 486.107 200.938C496.768 259.477 485.293 319.888 453.912 370.441C422.531 420.994 373.482 458.081 316.291 474.5C259.1 490.919 197.848 485.498 144.43 459.29C91.011 433.082 49.2384 387.957 27.2236 332.678C5.20878 277.399 4.52289 215.912 25.2991 160.155C46.0753 104.399 86.8309 58.3538 139.652 30.9605C191.868 3.88043 252.192 -3.06084 309.156 11.4098C310.247 11.687 311.363 11.0378 311.65 9.94907Z" stroke="white" stroke-width="11.2514" mask="url(#path-1-inside-1_158_28)"/>
<mask id="path-2-inside-2_158_28" fill="white">
<path d="M46.199 253.224C45.1295 253.273 44.3011 254.18 44.36 255.249C46.9739 302.725 65.9306 347.859 98.0461 382.976C130.598 418.569 174.606 441.615 222.402 448.097C270.199 454.58 318.755 444.089 359.612 418.451C400.468 392.814 431.036 353.655 445.989 307.798C460.942 261.94 459.333 212.289 441.443 167.496C423.552 122.702 390.514 85.6047 348.083 62.6661C305.652 39.7276 256.519 32.4018 209.242 41.9651C162.599 51.4002 120.681 76.6844 90.5834 113.494C89.9057 114.323 90.0397 115.544 90.8749 116.214C91.71 116.884 92.93 116.748 93.6078 115.92C123.137 79.8182 164.258 55.0203 210.011 45.7651C256.398 36.3818 304.607 43.5697 346.239 66.0766C387.871 88.5836 420.288 124.983 437.842 168.934C455.396 212.884 456.975 261.601 442.303 306.596C427.631 351.591 397.639 390.012 357.551 415.167C317.463 440.322 269.821 450.616 222.923 444.256C176.026 437.895 132.847 415.283 100.907 380.359C69.4041 345.913 50.8055 301.642 48.2331 255.073C48.1741 254.004 47.2684 253.175 46.199 253.224Z"/>
</mask>
<path d="M46.199 253.224C45.1295 253.273 44.3011 254.18 44.36 255.249C46.9739 302.725 65.9306 347.859 98.0461 382.976C130.598 418.569 174.606 441.615 222.402 448.097C270.199 454.58 318.755 444.089 359.612 418.451C400.468 392.814 431.036 353.655 445.989 307.798C460.942 261.94 459.333 212.289 441.443 167.496C423.552 122.702 390.514 85.6047 348.083 62.6661C305.652 39.7276 256.519 32.4018 209.242 41.9651C162.599 51.4002 120.681 76.6844 90.5834 113.494C89.9057 114.323 90.0397 115.544 90.8749 116.214C91.71 116.884 92.93 116.748 93.6078 115.92C123.137 79.8182 164.258 55.0203 210.011 45.7651C256.398 36.3818 304.607 43.5697 346.239 66.0766C387.871 88.5836 420.288 124.983 437.842 168.934C455.396 212.884 456.975 261.601 442.303 306.596C427.631 351.591 397.639 390.012 357.551 415.167C317.463 440.322 269.821 450.616 222.923 444.256C176.026 437.895 132.847 415.283 100.907 380.359C69.4041 345.913 50.8055 301.642 48.2331 255.073C48.1741 254.004 47.2684 253.175 46.199 253.224Z" stroke="white" stroke-width="11.2514" mask="url(#path-2-inside-2_158_28)"/>
<mask id="path-3-inside-3_158_28" fill="white">
<path d="M394.928 173.306C395.967 172.8 396.399 171.546 395.879 170.514C379.915 138.809 354.039 113.154 322.154 97.4658C289.644 81.4696 252.734 76.7456 217.243 84.0381C181.751 91.3306 149.695 110.225 126.126 137.744C102.556 165.263 88.8128 199.843 87.0619 236.033C85.3109 272.224 95.6516 307.969 116.454 337.635C137.257 367.3 167.34 389.201 201.962 399.886C236.583 410.571 273.776 409.432 307.679 396.649C340.93 384.112 369.162 361.075 388.112 331.059C388.729 330.082 388.419 328.793 387.435 328.189C386.45 327.585 385.163 327.894 384.546 328.871C366.082 358.095 338.585 380.526 306.203 392.735C273.169 405.19 236.93 406.3 203.195 395.889C169.461 385.478 140.149 364.138 119.88 335.233C99.6098 306.327 89.5341 271.499 91.2402 236.236C92.9464 200.972 106.337 167.279 129.303 140.465C152.268 113.652 183.503 95.2414 218.085 88.1358C252.667 81.0302 288.63 85.6331 320.308 101.219C351.359 116.497 376.562 141.478 392.119 172.348C392.639 173.379 393.89 173.812 394.928 173.306Z"/>
</mask>
<path d="M394.928 173.306C395.967 172.8 396.399 171.546 395.879 170.514C379.915 138.809 354.039 113.154 322.154 97.4658C289.644 81.4696 252.734 76.7456 217.243 84.0381C181.751 91.3306 149.695 110.225 126.126 137.744C102.556 165.263 88.8128 199.843 87.0619 236.033C85.3109 272.224 95.6516 307.969 116.454 337.635C137.257 367.3 167.34 389.201 201.962 399.886C236.583 410.571 273.776 409.432 307.679 396.649C340.93 384.112 369.162 361.075 388.112 331.059C388.729 330.082 388.419 328.793 387.435 328.189C386.45 327.585 385.163 327.894 384.546 328.871C366.082 358.095 338.585 380.526 306.203 392.735C273.169 405.19 236.93 406.3 203.195 395.889C169.461 385.478 140.149 364.138 119.88 335.233C99.6098 306.327 89.5341 271.499 91.2402 236.236C92.9464 200.972 106.337 167.279 129.303 140.465C152.268 113.652 183.503 95.2414 218.085 88.1358C252.667 81.0302 288.63 85.6331 320.308 101.219C351.359 116.497 376.562 141.478 392.119 172.348C392.639 173.379 393.89 173.812 394.928 173.306Z" fill="white" stroke="white" stroke-width="6.03102" mask="url(#path-3-inside-3_158_28)"/>
<mask id="path-4-inside-4_158_28" fill="white">
<path d="M221.085 134.923C220.716 133.534 219.289 132.704 217.908 133.105C192.636 140.445 170.603 156.214 155.5 177.83C139.901 200.157 132.701 227.283 135.177 254.407C137.652 281.532 149.642 306.907 169.025 326.042C188.409 345.177 213.936 356.839 241.09 358.964C268.244 361.09 295.275 353.541 317.399 337.655C339.524 321.769 355.316 298.569 361.981 272.16C368.647 245.751 365.756 217.835 353.82 193.352C342.264 169.65 322.953 150.645 299.131 139.463C297.829 138.852 296.291 139.449 295.709 140.764C295.128 142.078 295.724 143.613 297.025 144.225C319.724 154.91 338.123 173.036 349.14 195.634C360.538 219.012 363.298 245.668 356.934 270.886C350.569 296.103 335.489 318.257 314.363 333.427C293.237 348.596 267.425 355.804 241.496 353.774C215.567 351.745 191.191 340.609 172.683 322.337C154.174 304.065 142.725 279.835 140.361 253.934C137.998 228.033 144.872 202.131 159.768 180.811C174.167 160.203 195.163 145.16 219.247 138.137C220.628 137.735 221.455 136.312 221.085 134.923Z"/>
</mask>
<path d="M221.085 134.923C220.716 133.534 219.289 132.704 217.908 133.105C192.636 140.445 170.603 156.214 155.5 177.83C139.901 200.157 132.701 227.283 135.177 254.407C137.652 281.532 149.642 306.907 169.025 326.042C188.409 345.177 213.936 356.839 241.09 358.964C268.244 361.09 295.275 353.541 317.399 337.655C339.524 321.769 355.316 298.569 361.981 272.16C368.647 245.751 365.756 217.835 353.82 193.352C342.264 169.65 322.953 150.645 299.131 139.463C297.829 138.852 296.291 139.449 295.709 140.764C295.128 142.078 295.724 143.613 297.025 144.225C319.724 154.91 338.123 173.036 349.14 195.634C360.538 219.012 363.298 245.668 356.934 270.886C350.569 296.103 335.489 318.257 314.363 333.427C293.237 348.596 267.425 355.804 241.496 353.774C215.567 351.745 191.191 340.609 172.683 322.337C154.174 304.065 142.725 279.835 140.361 253.934C137.998 228.033 144.872 202.131 159.768 180.811C174.167 160.203 195.163 145.16 219.247 138.137C220.628 137.735 221.455 136.312 221.085 134.923Z" fill="white" stroke="white" stroke-width="6.03102" mask="url(#path-4-inside-4_158_28)"/>
</g>
</g>
<defs>
<clipPath id="clip0_158_28">
<rect width="494" height="169" fill="white" transform="matrix(-1 0 0 -1 494.533 169)"/>
</clipPath>
</defs>
</svg>
